<svg id="Layer_1" enable-background="new 0 0 512 512" height="512" viewBox="0 0 512 512" width="512" xmlns="http://www.w3.org/2000/svg"><circle clip-rule="evenodd" cx="256" cy="256" fill="#ec407a" fill-rule="evenodd" r="256"/><g id="Layer_x0020_1"><g id="_299221472" clip-rule="evenodd" fill-rule="evenodd"><g><path id="_299226008" d="m112.4 385.4h287v-258.6h-287zm290.5 6.5h-293.7c-1.8 0-3.3-1.5-3.3-3.3v-265.1c0-1.8 1.5-3.3 3.3-3.3h293.6c1.8 0 3.3 1.5 3.3 3.3v265.1c-.1 1.8-1.5 3.3-3.2 3.3z"/><path id="_299226560" d="m402.9 176.4h-293.7c-1.8 0-3.3-1.5-3.3-3.3s1.5-3.3 3.3-3.3h293.6c1.8 0 3.3 1.5 3.3 3.3-.1 2-1.5 3.3-3.2 3.3z"/><path id="_299226272" d="m357.4 142.1c-.4 0-.7.3-.7.7v11c0 .4.3.7.7.7h24.1c.4 0 .7-.3.7-.7v-11c0-.4-.3-.7-.7-.7zm24.1 19h-24.1c-4 0-7.2-3.2-7.2-7.2v-11c0-4 3.2-7.2 7.2-7.2h24.1c4 0 7.2 3.2 7.2 7.2v11c-.1 4-3.2 7.2-7.2 7.2z"/><path id="_299226320" d="m306.4 142.1c-.4 0-.7.3-.7.7v11c0 .4.3.7.7.7h24.1c.4 0 .7-.3.7-.7v-11c0-.4-.3-.7-.7-.7zm24.1 19h-24.1c-4 0-7.2-3.2-7.2-7.2v-11c0-4 3.2-7.2 7.2-7.2h24.1c4 0 7.2 3.2 7.2 7.2v11c.1 4-3.2 7.2-7.2 7.2z"/><path id="_299226176" d="m255.4 142.1c-.4 0-.7.3-.7.7v11c0 .4.3.7.7.7h24.1c.4 0 .7-.3.7-.7v-11c0-.4-.3-.7-.7-.7zm24.1 19h-24.1c-4 0-7.2-3.2-7.2-7.2v-11c0-4 3.2-7.2 7.2-7.2h24.1c4 0 7.2 3.2 7.2 7.2v11c.1 4-3.2 7.2-7.2 7.2z"/><path id="_299225744" d="m248.8 333.6h-13.7c-1.2 0-2.2-.6-2.8-1.6s-.6-2.2-.1-3.2l11.9-22.1c.6-1.1 1.7-1.7 2.9-1.7s2.3.7 2.9 1.7l6.9 12.8c.9 1.6.3 3.6-1.3 4.4-1.6.9-3.6.3-4.4-1.3l-4-7.4-6.4 11.9h8.3c1.8 0 3.3 1.5 3.3 3.3-.2 1.8-1.7 3.2-3.5 3.2z"/><path id="_299225624" d="m254.2 327.1h17.3l-8.7-16.1zm22.8 6.5h-28.3c-1.2 0-2.2-.6-2.8-1.6s-.6-2.2-.1-3.2l14.1-26.3c.6-1.1 1.7-1.7 2.9-1.7s2.3.7 2.9 1.7l14.1 26.3c.5 1 .5 2.2-.1 3.2-.5 1-1.6 1.6-2.7 1.6z"/><path id="_299225216" d="m222.6 296.8c-.3 0-.5.2-.5.5v40c0 .3.2.5.5.5h67c.3 0 .5-.3.5-.5v-40c0-.3-.2-.5-.5-.5zm66.9 47.6h-67c-3.9 0-7.1-3.2-7.1-7.1v-40c0-3.9 3.2-7.1 7.1-7.1h67c3.9 0 7.1 3.2 7.1 7.1v40c-.1 3.8-3.2 7.1-7.1 7.1z"/><path id="_299225144" d="m287.5 360.4h-62.9c-1.8 0-3.3-1.5-3.3-3.3s1.5-3.3 3.3-3.3h62.9c1.8 0 3.3 1.5 3.3 3.3s-1.6 3.3-3.3 3.3z"/><path id="_299225528" d="m287.5 376.9h-62.9c-1.8 0-3.3-1.5-3.3-3.3s1.5-3.3 3.3-3.3h62.9c1.8 0 3.3 1.5 3.3 3.3 0 1.9-1.6 3.3-3.3 3.3z"/><path id="_299225480" d="m156.2 333.6h-13.7c-1.2 0-2.2-.6-2.8-1.6s-.6-2.2-.1-3.2l11.9-22.1c.6-1.1 1.7-1.7 2.9-1.7s2.3.7 2.9 1.7l6.9 12.8c.9 1.6.3 3.6-1.3 4.4-1.6.9-3.6.3-4.4-1.3l-4-7.4-6.4 11.9h8.3c1.8 0 3.3 1.5 3.3 3.3-.1 1.8-1.6 3.2-3.5 3.2z"/><path id="_299225552" d="m161.8 327.1h17.3l-8.7-16.1zm22.8 6.5h-28.3c-1.2 0-2.2-.6-2.8-1.6s-.6-2.2-.1-3.2l14.1-26.3c.6-1.1 1.7-1.7 2.9-1.7s2.3.7 2.9 1.7l14.1 26.3c.5 1 .5 2.2-.1 3.2-.5 1-1.7 1.6-2.7 1.6z"/><path id="_299225408" d="m130.1 296.8c-.3 0-.5.2-.5.5v40c0 .3.2.5.5.5h67c.3 0 .5-.3.5-.5v-40c0-.3-.2-.5-.5-.5zm67 47.6h-67c-3.9 0-7.1-3.2-7.1-7.1v-40c0-3.9 3.2-7.1 7.1-7.1h67c3.9 0 7.1 3.2 7.1 7.1v40c-.1 3.8-3.3 7.1-7.1 7.1z"/><path id="_299225432" d="m194.9 360.4h-62.9c-1.8 0-3.3-1.5-3.3-3.3s1.5-3.3 3.3-3.3h62.9c1.8 0 3.3 1.5 3.3 3.3s-1.3 3.3-3.3 3.3z"/><path id="_299225312" d="m194.9 376.9h-62.9c-1.8 0-3.3-1.5-3.3-3.3s1.5-3.3 3.3-3.3h62.9c1.8 0 3.3 1.5 3.3 3.3 0 1.9-1.3 3.3-3.3 3.3z"/><path id="_299224328" d="m341.2 333.6h-13.7c-1.2 0-2.2-.6-2.8-1.6s-.6-2.2-.1-3.2l11.9-22.1c.6-1.1 1.7-1.7 2.9-1.7s2.3.7 2.9 1.7l6.9 12.8c.9 1.6.3 3.6-1.3 4.4-1.6.9-3.6.3-4.4-1.3l-4-7.4-6.4 11.9h8.3c1.8 0 3.3 1.5 3.3 3.3-.2 1.8-1.7 3.2-3.5 3.2z"/><path id="_299225024" d="m346.8 327.1h17.2l-8.7-16.1zm22.7 6.5h-28.3c-1.2 0-2.2-.6-2.8-1.6s-.6-2.2-.1-3.2l14.1-26.3c.6-1.1 1.7-1.7 2.9-1.7s2.3.7 2.9 1.7l14.1 26.3c.5 1 .5 2.2-.1 3.2-.4 1-1.6 1.6-2.7 1.6z"/><path id="_299224664" d="m315 296.8c-.3 0-.5.2-.5.5v40c0 .3.2.5.5.5h67c.3 0 .5-.3.5-.5v-40c0-.3-.2-.5-.5-.5zm67 47.6h-67c-3.9 0-7.1-3.2-7.1-7.1v-40c0-3.9 3.2-7.1 7.1-7.1h67c3.9 0 7.1 3.2 7.1 7.1v40c-.1 3.8-3.2 7.1-7.1 7.1z"/><path id="_299225000" d="m380 360.4h-62.9c-1.8 0-3.3-1.5-3.3-3.3s1.5-3.3 3.3-3.3h62.9c1.8 0 3.3 1.5 3.3 3.3s-1.5 3.3-3.3 3.3z"/><path id="_299224784" d="m380 376.9h-62.9c-1.8 0-3.3-1.5-3.3-3.3s1.5-3.3 3.3-3.3h62.9c1.8 0 3.3 1.5 3.3 3.3-.1 1.9-1.5 3.3-3.3 3.3z"/><path id="_299224928" d="m170.9 193.6c-8 2.7-14.9 7.8-19.9 14.3h13.7c.8-2.8 1.7-5.4 2.8-7.8.9-2.3 2.1-4.5 3.4-6.5zm10.2 81v-15.6h-9.7c2.5 8 6 13.5 9.7 15.6zm0-22v-15.7h-13.2c.2 5.7.8 11 1.8 15.7zm0-22.4v-15.7h-11.4c-1 4.7-1.6 10-1.8 15.7zm0-22.1v-15.6c-3.6 2.1-7.2 7.6-9.7 15.6zm6.5-15.7v15.6h9.7c-2.5-7.9-6.1-13.4-9.7-15.6zm0 22.2v15.7h13.2c-.2-5.7-.8-11-1.8-15.7zm0 22.3v15.7h11.4c1-4.7 1.6-10 1.8-15.7zm0 22.2v15.6c3.6-2.1 7.2-7.6 9.7-15.6zm30.2 0h-13.7c-.8 2.8-1.7 5.4-2.8 7.8s-2.2 4.6-3.5 6.5c8.1-2.6 15-7.8 20-14.3zm-53.2 0h-13.7c5 6.6 11.9 11.6 19.9 14.3-1.3-1.9-2.4-4-3.5-6.5-1.1-2.4-1.9-4.9-2.7-7.8zm-29-25.5c0-26.4 21.3-48.5 48.3-48.6h.3.3c27 .2 48.3 22.2 48.3 48.6v.1c0 26.4-21.4 48.4-48.3 48.6-.1 0-.2 0-.3 0-.1 0-.2 0-.3 0-26.8-.3-48.3-22.3-48.3-48.7zm11.2 19h16.2c-1-4.9-1.5-10.2-1.7-15.7h-18.9c.4 5.5 2 10.9 4.4 15.7zm58.8 0h16.2c2.4-4.8 4-10.1 4.4-15.7h-18.9c-.2 5.5-.7 10.7-1.7 15.7zm-63.2-22.4h18.9c.2-5.5.7-10.8 1.7-15.7h-16.2c-2.4 4.9-4 10.1-4.4 15.7zm65 0h18.9c-.4-5.6-2-10.9-4.4-15.7h-16.2c.9 5.1 1.4 10.4 1.7 15.7zm-3.3-22.1h13.7c-5-6.6-11.9-11.6-19.9-14.3 1.3 1.9 2.4 4 3.5 6.5 1 2.3 2 4.9 2.7 7.8z"/><path id="_299224904" d="m373 203.9h-112c-1.8 0-3.3-1.5-3.3-3.3s1.5-3.3 3.3-3.3h112c1.8 0 3.3 1.5 3.3 3.3.1 1.8-1.4 3.3-3.3 3.3z"/><path id="_299224880" d="m359.8 225.9h-98.8c-1.8 0-3.3-1.5-3.3-3.3s1.5-3.3 3.3-3.3h98.8c1.8 0 3.3 1.5 3.3 3.3s-1.6 3.3-3.3 3.3z"/><path id="_299224352" d="m346 247.9h-85c-1.8 0-3.3-1.5-3.3-3.3s1.5-3.3 3.3-3.3h85c1.8 0 3.3 1.5 3.3 3.3s-1.5 3.3-3.3 3.3z"/><path id="_299224976" d="m373 269.9h-112c-1.8 0-3.3-1.5-3.3-3.3s1.5-3.3 3.3-3.3h112c1.8 0 3.3 1.5 3.3 3.3.1 1.8-1.4 3.3-3.3 3.3z"/></g><path id="_299223824" d="m261 263.4h112c1.8 0 3.3 1.5 3.3 3.3s-1.5 3.3-3.3 3.3h-112c-1.8 0-3.3-1.5-3.3-3.3-.1-1.9 1.4-3.3 3.3-3.3zm0-15.5c-1.8 0-3.3-1.5-3.3-3.3s1.5-3.3 3.3-3.3h85c1.8 0 3.3 1.5 3.3 3.3s-1.5 3.3-3.3 3.3zm-38.4 42.2h67c3.9 0 7.1 3.2 7.1 7.1v40c0 3.9-3.2 7.1-7.1 7.1h-67c-3.9 0-7.1-3.2-7.1-7.1v-40c-.1-3.8 3.1-7.1 7.1-7.1zm2 63.7h62.9c1.8 0 3.3 1.5 3.3 3.3s-1.5 3.3-3.3 3.3h-62.9c-1.8 0-3.3-1.5-3.3-3.3-.1-1.9 1.5-3.3 3.3-3.3zm0 16.6h62.9c1.8 0 3.3 1.5 3.3 3.3s-1.5 3.3-3.3 3.3h-62.9c-1.8 0-3.3-1.5-3.3-3.3-.1-1.9 1.5-3.3 3.3-3.3zm-112.2 15h287v-209h-287zm120.5-151.8c0 26.4-21.4 48.4-48.3 48.6h-.3-.3c-27-.2-48.3-22.2-48.3-48.6s21.3-48.5 48.3-48.6h.3.3c27 .1 48.3 22.1 48.3 48.6zm126.9-7.7h-98.8c-1.8 0-3.3-1.5-3.3-3.3s1.5-3.3 3.3-3.3h98.8c1.8 0 3.3 1.5 3.3 3.3s-1.6 3.3-3.3 3.3zm13.2-22h-112c-1.8 0-3.3-1.5-3.3-3.3s1.5-3.3 3.3-3.3h112c1.8 0 3.3 1.5 3.3 3.3.1 1.8-1.4 3.3-3.3 3.3zm-65 133.3v-40c0-3.9 3.2-7.1 7.1-7.1h67c3.9 0 7.1 3.2 7.1 7.1v40c0 3.9-3.2 7.1-7.1 7.1h-67c-4 .1-7.1-3.2-7.1-7.1zm9 16.6h62.9c1.8 0 3.3 1.5 3.3 3.3s-1.5 3.3-3.3 3.3h-62.9c-1.8 0-3.3-1.5-3.3-3.3s1.5-3.3 3.3-3.3zm0 16.6h62.9c1.8 0 3.3 1.5 3.3 3.3s-1.5 3.3-3.3 3.3h-62.9c-1.8 0-3.3-1.5-3.3-3.3.1-1.9 1.5-3.3 3.3-3.3zm-112.9-73.2v40c0 3.9-3.2 7.1-7.1 7.1h-67c-3.9 0-7.1-3.2-7.1-7.1v-40c0-3.9 3.2-7.1 7.1-7.1h67c3.9 0 7.1 3.3 7.1 7.1zm-72 56.6h62.9c1.8 0 3.3 1.5 3.3 3.3s-1.5 3.3-3.3 3.3h-62.9c-1.8 0-3.3-1.5-3.3-3.3s1.4-3.3 3.3-3.3zm0 16.6h62.9c1.8 0 3.3 1.5 3.3 3.3s-1.5 3.3-3.3 3.3h-62.9c-1.8 0-3.3-1.5-3.3-3.3 0-1.9 1.4-3.3 3.3-3.3z" fill="#93f9e5"/><path id="_299223944" d="m197.6 337.2v-40c0-.3-.2-.5-.5-.5h-67c-.3 0-.5.2-.5.5v40c0 .3.2.5.5.5h67c.1.1.5-.2.5-.5zm-24.4-34.7 14.1 26.3c.5 1 .5 2.2-.1 3.2s-1.7 1.6-2.8 1.6h-28.2-13.7c-1.2 0-2.2-.6-2.8-1.6s-.6-2.2-.1-3.2l11.9-22.1c.6-1.1 1.7-1.7 2.9-1.7s2.3.7 2.9 1.7l4 7.4 6.2-11.6c.6-1.1 1.7-1.7 2.9-1.7 1.2.1 2.4.7 2.8 1.7z" fill="#ffe600"/><path id="_299224136" d="m222.1 297.2v40c0 .3.2.5.5.5h67c.3 0 .5-.3.5-.5v-40c0-.3-.2-.5-.5-.5h-67c-.4.1-.5.3-.5.5zm10 31.7 11.9-22.1c.6-1.1 1.7-1.7 2.9-1.7s2.3.7 2.9 1.7l4 7.4 6.2-11.6c.6-1.1 1.7-1.7 2.9-1.7s2.3.7 2.9 1.7l14.1 26.3c.5 1 .5 2.2-.1 3.2s-1.7 1.6-2.8 1.6h-28.3-13.7c-1.2 0-2.2-.6-2.8-1.6-.6-1.1-.6-2.2-.1-3.2z" fill="#c85aed"/><path id="_299223920" d="m314.5 297.2v40c0 .3.2.5.5.5h67c.3 0 .5-.3.5-.5v-40c0-.3-.2-.5-.5-.5h-67c-.2.1-.5.3-.5.5zm10 31.7 11.9-22.1c.6-1.1 1.7-1.7 2.9-1.7s2.3.7 2.9 1.7l4 7.4 6.2-11.6c.6-1.1 1.7-1.7 2.9-1.7s2.3.7 2.9 1.7l14.1 26.3c.5 1 .5 2.2-.1 3.2s-1.7 1.6-2.8 1.6h-28.2-13.7c-1.2 0-2.2-.6-2.8-1.6-.7-1.1-.7-2.2-.2-3.2z" fill="#ff9801"/><path id="_299223968" d="m339.4 315.1-6.4 12h6.2l3.3-6.1z" fill="#32d736"/><path id="_299224040" d="m349 322.8-2.4 4.4h17.3l-8.7-16.1-6.2 11.4c.1 0 .1.1 0 .3z" fill="#32d736"/><path id="_299223896" d="m271.5 327.1-8.7-16.1-6.2 11.4c0 .1-.1.2-.1.2l-2.4 4.4h17.4z" fill="#62dbfb"/><path id="_299222816" d="m250.1 321-3.2-5.9-6.5 12h6.4z" fill="#62dbfb"/><path id="_299223488" d="m179.1 327.1-8.7-16.1-6.2 11.5c0 .1-.1.1-.1.2l-2.4 4.4z" fill="#32d736"/><path id="_299223344" d="m154.2 327.1 3.4-6.1-3.2-5.9-6.5 12z" fill="#32d736"/><g fill="#17ace8"><path id="_299223224" d="m150.9 259.1c5 6.6 11.9 11.6 19.9 14.3-1.3-1.9-2.4-4-3.5-6.5-1.1-2.4-2-5-2.8-7.8z"/><path id="_299223176" d="m146.8 252.6h16.2c-1-4.9-1.5-10.2-1.7-15.7h-18.9c.4 5.5 2 10.9 4.4 15.7z"/><path id="_299223128" d="m142.4 230.2h18.9c.2-5.5.7-10.8 1.7-15.7h-16.2c-2.4 4.9-4 10.1-4.4 15.7z"/><path id="_299223008" d="m150.9 208.1h13.7c.8-2.8 1.7-5.4 2.8-7.8s2.2-4.6 3.5-6.5c-8 2.6-15 7.6-20 14.3z"/><path id="_299222768" d="m181.1 192.4c-3.6 2.1-7.2 7.6-9.7 15.6h9.7z"/><path id="_299222624" d="m181.1 214.6h-11.4c-1 4.7-1.6 10-1.8 15.7h13.2z"/><path id="_299222600" d="m181.1 236.9h-13.2c.2 5.7.8 11 1.8 15.7h11.4z"/><path id="_299222024" d="m181.1 259.1h-9.7c2.5 7.9 6 13.5 9.7 15.6z"/><path id="_299222432" d="m187.6 259.1v15.6c3.6-2.1 7.2-7.6 9.7-15.6z"/><path id="_299222552" d="m187.6 252.6h11.4c1-4.7 1.6-10 1.8-15.7h-13.2z"/><path id="_299222240" d="m187.6 230.2h13.2c-.2-5.7-.8-11-1.8-15.7h-11.4z"/><path id="_299222384" d="m187.6 208.1h9.7c-2.5-7.9-6-13.5-9.7-15.6z"/><path id="_299222504" d="m201.4 200.1c1.1 2.4 2 5 2.8 7.8h13.7c-5-6.6-11.9-11.6-19.9-14.3 1.1 2 2.2 4.2 3.4 6.5z"/><path id="_299221784" d="m221.9 214.6h-16.2c1 4.9 1.5 10.2 1.7 15.7h18.9c-.4-5.7-1.9-10.9-4.4-15.7z"/><path id="_299221352" d="m226.4 236.9h-18.9c-.2 5.5-.7 10.8-1.7 15.7h16.2c2.4-4.8 3.9-10.2 4.4-15.7z"/><path id="_299221640" d="m217.8 259.1h-13.7c-.8 2.8-1.7 5.4-2.8 7.8s-2.2 4.6-3.5 6.5c8.1-2.6 15-7.8 20-14.3z"/><path id="_299221904" d="m112.4 169.9h287v-43.2h-287zm135.8-16v-11c0-4 3.2-7.2 7.2-7.2h24.1c4 0 7.2 3.2 7.2 7.2v11c0 4-3.2 7.2-7.2 7.2h-24.1c-4 0-7.2-3.2-7.2-7.2zm50.9 0v-11c0-4 3.2-7.2 7.2-7.2h24.1c4 0 7.2 3.2 7.2 7.2v11c0 4-3.2 7.2-7.2 7.2h-24.1c-3.8 0-7.2-3.2-7.2-7.2zm51 0v-11c0-4 3.2-7.2 7.2-7.2h24.1c4 0 7.2 3.2 7.2 7.2v11c0 4-3.2 7.2-7.2 7.2h-24.1c-3.9 0-7.2-3.2-7.2-7.2z"/></g><path id="_299221256" d="m255.4 154.4h24.1c.4 0 .7-.3.7-.7v-11c0-.4-.3-.7-.7-.7h-24.1c-.4 0-.7.3-.7.7v11c.1.4.4.7.7.7z" fill="#ffea00"/><path id="_299221712" d="m305.8 142.9v11c0 .4.3.7.7.7h24.1c.4 0 .7-.3.7-.7v-11c0-.4-.3-.7-.7-.7h-24.1c-.5-.1-.7.2-.7.7z" fill="#c85aed"/><path id="_299221304" d="m356.6 142.9v11c0 .4.3.7.7.7h24.1c.4 0 .7-.3.7-.7v-11c0-.4-.3-.7-.7-.7h-24.1c-.3-.1-.7.2-.7.7z" fill="#fd481e"/></g></g></svg>